STARTFONT 2.1
FONT -SwissMicros-DMCP-Normal-R-Normal--7-70-173-173-P-220--
SIZE 7 173 173
FONTBOUNDINGBOX 14 27 0 -5
STARTPROPERTIES 41
FAMILY_NAME "DMCP"
DEFAULT_CHAR -1
FOUNDRY "AmsteinGraphics"
COPYRIGHT "Copyright (c) 2022 SwissMicros"
CODEPAGE "MS Windows 1252 Western (ANSI)"
ENC_MODE 2
ENC_ID 1
CREATION_YEAR 2022
WEIGHT_NAME "Normal"
SLANT "R"
SETWIDTH_NAME "Normal"
SPACING "P"
WEIGHT 400
HI_VERSION 1
CP_RANGE_1 65535
CP_RANGE_2 65535
FONTNAME_REGISTRY "-"
CHARSET_REGISTRY "ISO10646"
CHARSET_ENCODING "1"
BREAK_CHAR 32
PIXEL_SIZE 17
POINT_SIZE 70
FONT_ASCENT 18
FONT_DESCENT 5
RESOLUTION_X 173
RESOLUTION_Y 173
AVERAGE_WIDTH 220
MIN_SPACE 10
NORM_SPACE 14
MAX_SPACE 21
END_SPACE 14
SUPERSCRIPT_X 7
SUPERSCRIPT_Y 7
SUBSCRIPT_X 7
SUBSCRIPT_Y 7
X_HEIGHT 13
AVG_CAPITAL_WIDTH 14
AVG_LOWERCASE_WIDTH 14
CAP_HEIGHT 18
FIGURE_WIDTH 14
SUBSCRIPT_SIZE 10
ENDPROPERTIES
CHARS 289
STARTCHAR space.uni0020
ENCODING 32
SWIDTH 576 0
DWIDTH 14 0
BBX 0 0 0 0
BITMAP
ENDCHAR
STARTCHAR exclam.uni0021
ENCODING 33
SWIDTH 576 0
DWIDTH 14 0
BBX 2 18 6 0
BITMAP
C000
C000
C000
C000
C000
C000
C000
C000
C000
C000
C000
C000
0000
0000
0000
C000
C000
C000
ENDCHAR
STARTCHAR quotedbl.uni0022
ENCODING 34
SWIDTH 576 0
DWIDTH 14 0
BBX 6 7 4 11
BITMAP
CC00
CC00
CC00
CC00
CC00
CC00
CC00
ENDCHAR
STARTCHAR numbersign.uni0023
ENCODING 35
SWIDTH 576 0
DWIDTH 14 0
BBX 14 18 0 0
BITMAP
0330
0330
0330
0660
0660
7FFC
7FFC
0CC0
0CC0
0CC0
0CC0
FFF8
FFF8
1980
1980
3300
3300
3300
ENDCHAR
STARTCHAR dollar.uni0024
ENCODING 36
SWIDTH 576 0
DWIDTH 14 0
BBX 11 22 2 -4
BITMAP
0400
0400
0400
1F80
7FC0
E440
C400
C400
C400
7C00
3F80
07C0
04E0
0460
0460
84E0
FFC0
3F00
0400
0400
0400
0400
ENDCHAR
STARTCHAR percent.uni0025
ENCODING 37
SWIDTH 576 0
DWIDTH 14 0
BBX 13 18 0 0
BITMAP
3800
7C00
C600
C600
C600
7C00
3830
00E0
0380
0E00
3800
60E0
01F0
0318
0318
0318
01F0
00E0
ENDCHAR
STARTCHAR ampersand.uni0026
ENCODING 38
SWIDTH 576 0
DWIDTH 14 0
BBX 13 18 1 0
BITMAP
0F00
1F80
3880
3000
3000
3000
1800
1C00
3C00
6618
C718
C398
C1B0
C0F0
E0E0
70F0
3FB0
1F38
ENDCHAR
STARTCHAR quotesingle.uni0027
ENCODING 39
SWIDTH 576 0
DWIDTH 14 0
BBX 2 7 6 11
BITMAP
C000
C000
C000
C000
C000
C000
C000
ENDCHAR
STARTCHAR parenleft.uni0028
ENCODING 40
SWIDTH 576 0
DWIDTH 14 0
BBX 5 21 5 -3
BITMAP
1800
3000
3000
6000
6000
6000
C000
C000
C000
C000
C000
C000
C000
C000
C000
6000
6000
6000
3000
3000
1800
ENDCHAR
STARTCHAR parenright.uni0029
ENCODING 41
SWIDTH 576 0
DWIDTH 14 0
BBX 5 21 4 -3
BITMAP
C000
6000
6000
3000
3000
3000
1800
1800
1800
1800
1800
1800
1800
1800
1800
3000
3000
3000
6000
6000
C000
ENDCHAR
STARTCHAR asterisk.uni002A
ENCODING 42
SWIDTH 576 0
DWIDTH 14 0
BBX 9 10 2 8
BITMAP
0800
0800
8880
6B00
1C00
1C00
6B00
8880
0800
0800
ENDCHAR
STARTCHAR plus.uni002B
ENCODING 43
SWIDTH 576 0
DWIDTH 14 0
BBX 12 12 1 2
BITMAP
0600
0600
0600
0600
0600
FFF0
FFF0
0600
0600
0600
0600
0600
ENDCHAR
STARTCHAR comma.uni002C
ENCODING 44
SWIDTH 576 0
DWIDTH 14 0
BBX 4 7 5 -3
BITMAP
7000
7000
7000
7000
6000
E000
C000
ENDCHAR
STARTCHAR carriagereturn.uni21B5
ENCODING 8629
SWIDTH 576 0
DWIDTH 14 0
BBX 13 16 0 0
BITMAP
0038
0038
0038
0038
0038
0438
0C38
1838
3838
7FF8
FFF8
7FF0
3800
1800
0C00
0400
ENDCHAR
STARTCHAR period.uni002E
ENCODING 46
SWIDTH 576 0
DWIDTH 14 0
BBX 3 4 5 0
BITMAP
E000
E000
E000
E000
ENDCHAR
STARTCHAR slash.uni002F
ENCODING 47
SWIDTH 576 0
DWIDTH 14 0
BBX 11 20 1 -2
BITMAP
0060
0060
00C0
00C0
0180
0180
0300
0300
0600
0600
0C00
0C00
1800
1800
3000
3000
6000
6000
C000
C000
ENDCHAR
STARTCHAR zero.uni0030
ENCODING 48
SWIDTH 576 0
DWIDTH 14 0
BBX 11 18 1 0
BITMAP
1F00
3F80
71C0
60C0
E0C0
C0E0
C1E0
C360
C660
CC60
D860
F060
E060
E0E0
60C0
71C0
3F80
1F00
ENDCHAR
STARTCHAR one.uni0031
ENCODING 49
SWIDTH 576 0
DWIDTH 14 0
BBX 8 18 4 0
BITMAP
3800
F800
D800
1800
1800
1800
1800
1800
1800
1800
1800
1800
1800
1800
1800
1800
FF00
FF00
ENDCHAR
STARTCHAR two.uni0032
ENCODING 50
SWIDTH 576 0
DWIDTH 14 0
BBX 11 18 2 0
BITMAP
3F00
FF80
C1C0
00E0
0060
0060
0060
0060
00C0
01C0
0380
0700
0E00
1C00
3800
7000
FFE0
FFE0
ENDCHAR
STARTCHAR three.uni0033
ENCODING 51
SWIDTH 576 0
DWIDTH 14 0
BBX 11 18 1 0
BITMAP
1F00
7FC0
40C0
0060
0060
0060
0060
01C0
1F80
1F80
01C0
0060
0060
0060
0060
81C0
FFC0
7F00
ENDCHAR
STARTCHAR four.uni0034
ENCODING 52
SWIDTH 576 0
DWIDTH 14 0
BBX 12 18 1 0
BITMAP
00C0
01C0
01C0
03C0
06C0
04C0
0CC0
18C0
10C0
30C0
60C0
40C0
FFF0
FFF0
00C0
00C0
00C0
00C0
ENDCHAR
STARTCHAR five.uni0035
ENCODING 53
SWIDTH 576 0
DWIDTH 14 0
BBX 11 18 1 0
BITMAP
7FC0
7FC0
6000
6000
6000
6000
7F00
7FC0
41C0
00E0
0060
0060
0060
0060
00E0
81C0
FFC0
7F00
ENDCHAR
STARTCHAR six.uni0036
ENCODING 54
SWIDTH 576 0
DWIDTH 14 0
BBX 11 18 1 0
BITMAP
0F80
3FC0
3840
6000
6000
C000
CF00
DFC0
F1C0
E0E0
C060
C060
C060
C060
60E0
71C0
3FC0
1F00
ENDCHAR
STARTCHAR seven.uni0037
ENCODING 55
SWIDTH 576 0
DWIDTH 14 0
BBX 11 18 1 0
BITMAP
FFE0
FFE0
0060
00C0
00C0
00C0
0180
0180
0180
0300
0300
0300
0600
0600
0600
0C00
0C00
0C00
ENDCHAR
STARTCHAR eight.uni0038
ENCODING 56
SWIDTH 576 0
DWIDTH 14 0
BBX 11 18 1 0
BITMAP
1F00
7FC0
E0E0
C060
C060
C060
C060
60C0
3F80
3F80
60C0
C060
C060
C060
C060
E0E0
7FC0
1F00
ENDCHAR
STARTCHAR nine.uni0039
ENCODING 57
SWIDTH 576 0
DWIDTH 14 0
BBX 11 18 1 0
BITMAP
1F00
7F80
71C0
E0C0
C060
C060
C060
C060
E0E0
61E0
7F60
1E60
0060
00C0
00C0
4180
7F80
3E00
ENDCHAR
STARTCHAR colon.uni003A
ENCODING 58
SWIDTH 576 0
DWIDTH 14 0
BBX 3 12 5 0
BITMAP
E000
E000
E000
E000
0000
0000
0000
0000
E000
E000
E000
E000
ENDCHAR
STARTCHAR semicolon.uni003B
ENCODING 59
SWIDTH 576 0
DWIDTH 14 0
BBX 4 15 4 -3
BITMAP
7000
7000
7000
7000
0000
0000
0000
0000
7000
7000
7000
7000
6000
E000
C000
ENDCHAR
STARTCHAR less.uni003C
ENCODING 60
SWIDTH 576 0
DWIDTH 14 0
BBX 12 12 1 1
BITMAP
0030
00F0
03C0
0F00
3C00
F000
F000
3C00
0F00
03C0
00F0
0030
ENDCHAR
STARTCHAR equal.uni003D
ENCODING 61
SWIDTH 576 0
DWIDTH 14 0
BBX 12 7 1 4
BITMAP
FFF0
FFF0
0000
0000
0000
FFF0
FFF0
ENDCHAR
STARTCHAR greater.uni003E
ENCODING 62
SWIDTH 576 0
DWIDTH 14 0
BBX 12 12 1 1
BITMAP
C000
F000
3C00
0F00
03C0
00F0
00F0
03C0
0F00
3C00
F000
C000
ENDCHAR
STARTCHAR question.uni003F
ENCODING 63
SWIDTH 576 0
DWIDTH 14 0
BBX 9 18 2 0
BITMAP
3E00
7F00
C380
8180
0180
0180
0300
0700
0E00
1C00
1800
1800
1800
0000
0000
1800
1800
1800
ENDCHAR
STARTCHAR at.uni0040
ENCODING 64
SWIDTH 576 0
DWIDTH 14 0
BBX 13 20 1 -4
BITMAP
07C0
1FE0
3870
3030
6018
61D8
C3F8
C738
C618
C618
C618
C618
C738
C3F8
61D8
6000
3000
3C00
0FE0
07E0
ENDCHAR
STARTCHAR A.uni0041
ENCODING 65
SWIDTH 576 0
DWIDTH 14 0
BBX 11 18 1 0
BITMAP
0E00
0E00
0E00
0E00
1B00
1B00
1B00
1B00
3180
3180
3180
3180
7FC0
7FC0
60C0
60C0
C060
C060
ENDCHAR
STARTCHAR B.uni0042
ENCODING 66
SWIDTH 576 0
DWIDTH 14 0
BBX 11 18 1 0
BITMAP
FE00
FF80
C180
C0C0
C0C0
C0C0
C0C0
C180
FF80
FF80
C0C0
C060
C060
C060
C060
C0E0
FFC0
FF00
ENDCHAR
STARTCHAR C.uni0043
ENCODING 67
SWIDTH 576 0
DWIDTH 14 0
BBX 11 18 1 0
BITMAP
0FC0
1FE0
3820
6000
6000
C000
C000
C000
C000
C000
C000
C000
C000
6000
6000
3820
1FE0
0FC0
ENDCHAR
STARTCHAR D.uni0044
ENCODING 68
SWIDTH 576 0
DWIDTH 14 0
BBX 11 18 1 0
BITMAP
FC00
FF00
C380
C0C0
C0C0
C060
C060
C060
C060
C060
C060
C060
C060
C0C0
C0C0
C380
FF00
FC00
ENDCHAR
STARTCHAR E.uni0045
ENCODING 69
SWIDTH 576 0
DWIDTH 14 0
BBX 11 18 1 0
BITMAP
FFE0
FFE0
C000
C000
C000
C000
C000
C000
FFC0
FFC0
C000
C000
C000
C000
C000
C000
FFE0
FFE0
ENDCHAR
STARTCHAR F.uni0046
ENCODING 70
SWIDTH 576 0
DWIDTH 14 0
BBX 11 18 1 0
BITMAP
FFE0
FFE0
C000
C000
C000
C000
C000
C000
FFC0
FFC0
C000
C000
C000
C000
C000
C000
C000
C000
ENDCHAR
STARTCHAR G.uni0047
ENCODING 71
SWIDTH 576 0
DWIDTH 14 0
BBX 11 18 1 0
BITMAP
0F80
3FC0
3040
6000
6000
C000
C000
C000
C000
C1E0
C1E0
C060
C060
6060
6060
3060
3FE0
0F80
ENDCHAR
STARTCHAR H.uni0048
ENCODING 72
SWIDTH 576 0
DWIDTH 14 0
BBX 11 18 1 0
BITMAP
C060
C060
C060
C060
C060
C060
C060
C060
FFE0
FFE0
C060
C060
C060
C060
C060
C060
C060
C060
ENDCHAR
STARTCHAR I.uni0049
ENCODING 73
SWIDTH 576 0
DWIDTH 14 0
BBX 10 18 2 0
BITMAP
FFC0
FFC0
0C00
0C00
0C00
0C00
0C00
0C00
0C00
0C00
0C00
0C00
0C00
0C00
0C00
0C00
FFC0
FFC0
ENDCHAR
STARTCHAR J.uni004A
ENCODING 74
SWIDTH 576 0
DWIDTH 14 0
BBX 9 18 2 0
BITMAP
1F80
1F80
0180
0180
0180
0180
0180
0180
0180
0180
0180
0180
0180
0180
8180
C300
FF00
3C00
ENDCHAR
STARTCHAR K.uni004B
ENCODING 75
SWIDTH 576 0
DWIDTH 14 0
BBX 12 18 1 0
BITMAP
C060
C0C0
C1C0
C380
C700
CE00
DC00
F800
FC00
EE00
C600
C700
C300
C180
C1C0
C0C0
C060
C070
ENDCHAR
STARTCHAR L.uni004C
ENCODING 76
SWIDTH 576 0
DWIDTH 14 0
BBX 11 18 1 0
BITMAP
C000
C000
C000
C000
C000
C000
C000
C000
C000
C000
C000
C000
C000
C000
C000
C000
FFE0
FFE0
ENDCHAR
STARTCHAR M.uni004D
ENCODING 77
SWIDTH 576 0
DWIDTH 14 0
BBX 11 18 1 0
BITMAP
E0E0
E0E0
F1E0
F1E0
D160
D160
DB60
DB60
CA60
CE60
CE60
CE60
C460
C460
C460
C060
C060
C060
ENDCHAR
STARTCHAR N.uni004E
ENCODING 78
SWIDTH 576 0
DWIDTH 14 0
BBX 11 18 1 0
BITMAP
E060
E060
F060
F060
D860
D860
D860
CC60
CC60
C660
C660
C360
C360
C360
C1E0
C1E0
C0E0
C0E0
ENDCHAR
STARTCHAR O.uni004F
ENCODING 79
SWIDTH 576 0
DWIDTH 14 0
BBX 11 18 1 0
BITMAP
1F00
3F80
71C0
60C0
E0E0
C060
C060
C060
C060
C060
C060
C060
C060
E0E0
60C0
71C0
3F80
1F00
ENDCHAR
STARTCHAR P.uni0050
ENCODING 80
SWIDTH 576 0
DWIDTH 14 0
BBX 11 18 1 0
BITMAP
FF00
FFC0
C1C0
C060
C060
C060
C060
C1C0
FFC0
FF00
C000
C000
C000
C000
C000
C000
C000
C000
ENDCHAR
STARTCHAR Q.uni0051
ENCODING 81
SWIDTH 576 0
DWIDTH 14 0
BBX 11 21 1 -3
BITMAP
1F00
3F80
71C0
60C0
E0E0
C060
C060
C060
C060
C060
C060
C060
C060
E0E0
60C0
71C0
3F80
1F80
01C0
00E0
0040
ENDCHAR
STARTCHAR R.uni0052
ENCODING 82
SWIDTH 576 0
DWIDTH 14 0
BBX 13 18 1 0
BITMAP
FF00
FFC0
C1C0
C060
C060
C060
C060
C0C0
FF80
FF80
C1C0
C0C0
C0E0
C060
C060
C030
C030
C018
ENDCHAR
STARTCHAR S.uni0053
ENCODING 83
SWIDTH 576 0
DWIDTH 14 0
BBX 11 18 1 0
BITMAP
1F80
7FC0
6040
C000
C000
C000
C000
7000
7E00
1F80
01C0
00E0
0060
0060
0060
C0C0
FFC0
7F00
ENDCHAR
STARTCHAR T.uni0054
ENCODING 84
SWIDTH 576 0
DWIDTH 14 0
BBX 12 18 1 0
BITMAP
FFF0
FFF0
0600
0600
0600
0600
0600
0600
0600
0600
0600
0600
0600
0600
0600
0600
0600
0600
ENDCHAR
STARTCHAR U.uni0055
ENCODING 85
SWIDTH 576 0
DWIDTH 14 0
BBX 11 18 1 0
BITMAP
C060
C060
C060
C060
C060
C060
C060
C060
C060
C060
C060
C060
C060
C060
C060
60C0
7FC0
1F00
ENDCHAR
STARTCHAR V.uni0056
ENCODING 86
SWIDTH 576 0
DWIDTH 14 0
BBX 11 18 1 0
BITMAP
C060
C060
E0E0
60C0
60C0
60C0
71C0
3180
3180
3180
1B80
1B00
1B00
1B00
1F00
0E00
0E00
0E00
ENDCHAR
STARTCHAR W.uni0057
ENCODING 87
SWIDTH 576 0
DWIDTH 14 0
BBX 14 18 0 0
BITMAP
C00C
C00C
C00C
E01C
6018
6318
6318
6798
6798
6798
74B8
34B0
3CF0
3CF0
3870
3870
3870
3870
ENDCHAR
STARTCHAR X.uni0058
ENCODING 88
SWIDTH 576 0
DWIDTH 14 0
BBX 11 18 1 0
BITMAP
E0E0
60C0
71C0
3180
3B80
1B00
1F00
0E00
0E00
0E00
1F00
1B00
3B80
3180
71C0
60C0
E0E0
C060
ENDCHAR
STARTCHAR Y.uni0059
ENCODING 89
SWIDTH 576 0
DWIDTH 14 0
BBX 12 18 1 0
BITMAP
E070
6060
70E0
30C0
39C0
1980
1F80
0F00
0F00
0600
0600
0600
0600
0600
0600
0600
0600
0600
ENDCHAR
STARTCHAR Z.uni005A
ENCODING 90
SWIDTH 576 0
DWIDTH 14 0
BBX 11 18 1 0
BITMAP
FFE0
FFE0
00E0
00C0
0180
0380
0300
0700
0600
0C00
1C00
1800
3800
3000
6000
E000
FFE0
FFE0
ENDCHAR
STARTCHAR bracketleft.uni005B
ENCODING 91
SWIDTH 576 0
DWIDTH 14 0
BBX 5 21 5 -3
BITMAP
F800
F800
C000
C000
C000
C000
C000
C000
C000
C000
C000
C000
C000
C000
C000
C000
C000
C000
C000
F800
F800
ENDCHAR
STARTCHAR backslash.uni005C
ENCODING 92
SWIDTH 576 0
DWIDTH 14 0
BBX 11 20 1 -2
BITMAP
C000
C000
6000
6000
3000
3000
1800
1800
0C00
0C00
0600
0600
0300
0300
0180
0180
00C0
00C0
0060
0060
ENDCHAR
STARTCHAR bracketright.uni005D
ENCODING 93
SWIDTH 576 0
DWIDTH 14 0
BBX 5 21 4 -3
BITMAP
F800
F800
1800
1800
1800
1800
1800
1800
1800
1800
1800
1800
1800
1800
1800
1800
1800
1800
1800
F800
F800
ENDCHAR
STARTCHAR asciicircum.uni005E
ENCODING 94
SWIDTH 576 0
DWIDTH 14 0
BBX 12 6 1 12
BITMAP
0600
0F00
1F80
39C0
70E0
C030
ENDCHAR
STARTCHAR underscore.uni005F
ENCODING 95
SWIDTH 576 0
DWIDTH 14 0
BBX 12 2 0 -4
BITMAP
FFF0
FFF0
ENDCHAR
STARTCHAR grave.uni0060
ENCODING 96
SWIDTH 576 0
DWIDTH 14 0
BBX 5 4 3 15
BITMAP
E000
7000
3000
1800
ENDCHAR
STARTCHAR a.uni0061
ENCODING 97
SWIDTH 576 0
DWIDTH 14 0
BBX 11 13 2 0
BITMAP
3F00
7FC0
40E0
0060
0060
1FE0
7FE0
E060
C060
C0E0
E1E0
7F60
3E60
ENDCHAR
STARTCHAR b.uni0062
ENCODING 98
SWIDTH 576 0
DWIDTH 14 0
BBX 11 18 2 0
BITMAP
C000
C000
C000
C000
C000
CF00
DF80
F1C0
E0C0
C060
C060
C060
C060
C060
E0C0
F1C0
DF80
CF00
ENDCHAR
STARTCHAR c.uni0063
ENCODING 99
SWIDTH 576 0
DWIDTH 14 0
BBX 10 13 2 0
BITMAP
0F80
3FC0
7040
6000
C000
C000
C000
C000
C000
6000
7040
3FC0
0F80
ENDCHAR
STARTCHAR d.uni0064
ENCODING 100
SWIDTH 576 0
DWIDTH 14 0
BBX 11 18 2 0
BITMAP
0060
0060
0060
0060
0060
1E60
3F60
71E0
60E0
C060
C060
C060
C060
C060
60E0
71E0
3F60
1E60
ENDCHAR
STARTCHAR e.uni0065
ENCODING 101
SWIDTH 576 0
DWIDTH 14 0
BBX 11 13 2 0
BITMAP
1F00
3FC0
70C0
6060
C060
FFE0
FFE0
C000
C000
6000
7060
3FE0
0F80
ENDCHAR
STARTCHAR f.uni0066
ENCODING 102
SWIDTH 576 0
DWIDTH 14 0
BBX 9 18 3 0
BITMAP
0780
0F80
1800
1800
1800
FF80
FF80
1800
1800
1800
1800
1800
1800
1800
1800
1800
7F00
7F00
ENDCHAR
STARTCHAR g.uni0067
ENCODING 103
SWIDTH 576 0
DWIDTH 14 0
BBX 11 18 2 -5
BITMAP
1E60
3F60
71E0
60E0
C060
C060
C060
C060
C060
60E0
71E0
3F60
1E60
0060
0060
40C0
7F80
3F00
ENDCHAR
STARTCHAR h.uni0068
ENCODING 104
SWIDTH 576 0
DWIDTH 14 0
BBX 11 18 2 0
BITMAP
C000
C000
C000
C000
C000
CF80
DFC0
F0C0
E060
C060
C060
C060
C060
C060
C060
C060
C060
C060
ENDCHAR
STARTCHAR i.uni0069
ENCODING 105
SWIDTH 576 0
DWIDTH 14 0
BBX 10 18 2 0
BITMAP
0C00
0C00
0C00
0000
0000
7C00
7C00
0C00
0C00
0C00
0C00
0C00
0C00
0C00
0C00
0C00
FFC0
FFC0
ENDCHAR
STARTCHAR j.uni006A
ENCODING 106
SWIDTH 576 0
DWIDTH 14 0
BBX 7 23 2 -5
BITMAP
0600
0600
0600
0000
0000
7E00
7E00
0600
0600
0600
0600
0600
0600
0600
0600
0600
0600
0600
0600
0600
0E00
FC00
F800
ENDCHAR
STARTCHAR k.uni006B
ENCODING 107
SWIDTH 576 0
DWIDTH 14 0
BBX 11 18 2 0
BITMAP
C000
C000
C000
C000
C000
C1C0
C380
C700
CE00
DC00
FC00
FC00
E600
C700
C300
C180
C1C0
C0E0
ENDCHAR
STARTCHAR l.uni006C
ENCODING 108
SWIDTH 576 0
DWIDTH 14 0
BBX 10 18 1 0
BITMAP
FC00
FC00
0C00
0C00
0C00
0C00
0C00
0C00
0C00
0C00
0C00
0C00
0C00
0C00
0C00
0E00
07C0
03C0
ENDCHAR
STARTCHAR m.uni006D
ENCODING 109
SWIDTH 576 0
DWIDTH 14 0
BBX 12 13 2 0
BITMAP
DCE0
FFF0
C630
C630
C630
C630
C630
C630
C630
C630
C630
C630
C630
ENDCHAR
STARTCHAR n.uni006E
ENCODING 110
SWIDTH 576 0
DWIDTH 14 0
BBX 11 13 2 0
BITMAP
CF80
DFC0
F0C0
E060
C060
C060
C060
C060
C060
C060
C060
C060
C060
ENDCHAR
STARTCHAR o.uni006F
ENCODING 111
SWIDTH 576 0
DWIDTH 14 0
BBX 11 13 2 0
BITMAP
1F00
3F80
71C0
60C0
C060
C060
C060
C060
C060
60C0
71C0
3F80
1F00
ENDCHAR
STARTCHAR p.uni0070
ENCODING 112
SWIDTH 576 0
DWIDTH 14 0
BBX 11 18 2 -5
BITMAP
CF00
DF80
F1C0
E0C0
C060
C060
C060
C060
C060
E0C0
F1C0
DF80
CF00
C000
C000
C000
C000
C000
ENDCHAR
STARTCHAR q.uni0071
ENCODING 113
SWIDTH 576 0
DWIDTH 14 0
BBX 11 18 2 -5
BITMAP
1E60
3F60
71E0
60E0
C060
C060
C060
C060
C060
60E0
71E0
3F60
1E60
0060
0060
0060
0060
0060
ENDCHAR
STARTCHAR r.uni0072
ENCODING 114
SWIDTH 576 0
DWIDTH 14 0
BBX 11 13 2 0
BITMAP
F3C0
F7E0
3C20
3800
3000
3000
3000
3000
3000
3000
3000
FF00
FF00
ENDCHAR
STARTCHAR s.uni0073
ENCODING 115
SWIDTH 576 0
DWIDTH 14 0
BBX 11 13 2 0
BITMAP
3F80
7FC0
E040
C000
E000
7E00
3FC0
03E0
0060
0060
C0E0
FFC0
3F00
ENDCHAR
STARTCHAR t.uni0074
ENCODING 116
SWIDTH 576 0
DWIDTH 14 0
BBX 10 17 3 0
BITMAP
1800
1800
1800
1800
FFC0
FFC0
1800
1800
1800
1800
1800
1800
1800
1800
0C00
0FC0
03C0
ENDCHAR
STARTCHAR u.uni0075
ENCODING 117
SWIDTH 576 0
DWIDTH 14 0
BBX 11 13 2 0
BITMAP
C060
C060
C060
C060
C060
C060
C060
C060
C060
C0E0
61E0
7F60
3E60
ENDCHAR
STARTCHAR v.uni0076
ENCODING 118
SWIDTH 576 0
DWIDTH 14 0
BBX 11 13 2 0
BITMAP
C060
C060
60C0
60C0
60C0
3180
3180
3180
1B00
1B00
1B00
0E00
0E00
ENDCHAR
STARTCHAR w.uni0077
ENCODING 119
SWIDTH 576 0
DWIDTH 14 0
BBX 14 13 0 0
BITMAP
C00C
C00C
6018
6018
6318
6318
77B8
37B0
34B0
34B0
3CF0
1860
1860
ENDCHAR
STARTCHAR x.uni0078
ENCODING 120
SWIDTH 576 0
DWIDTH 14 0
BBX 11 13 2 0
BITMAP
E0E0
71C0
3180
3B80
1F00
0E00
0E00
0E00
1B00
3B80
3180
60C0
E0E0
ENDCHAR
STARTCHAR y.uni0079
ENCODING 121
SWIDTH 576 0
DWIDTH 14 0
BBX 11 18 2 -5
BITMAP
C060
60C0
60C0
60C0
3180
3180
3180
1B00
1B00
1B00
0E00
0E00
0E00
0C00
0C00
1C00
7800
7000
ENDCHAR
STARTCHAR z.uni007A
ENCODING 122
SWIDTH 576 0
DWIDTH 14 0
BBX 11 13 2 0
BITMAP
FFE0
FFE0
00E0
01C0
0380
0700
0E00
1C00
3800
7000
E000
FFE0
FFE0
ENDCHAR
STARTCHAR braceleft.uni007B
ENCODING 123
SWIDTH 576 0
DWIDTH 14 0
BBX 8 22 3 -4
BITMAP
0F00
1F00
1800
1800
1800
1800
1800
1800
1800
3800
F000
F000
3800
1800
1800
1800
1800
1800
1800
1800
1F00
0F00
ENDCHAR
STARTCHAR bar.uni007C
ENCODING 124
SWIDTH 576 0
DWIDTH 14 0
BBX 2 23 6 -5
BITMAP
C000
C000
C000
C000
C000
C000
C000
C000
C000
C000
C000
C000
C000
C000
C000
C000
C000
C000
C000
C000
C000
C000
C000
ENDCHAR
STARTCHAR braceright.uni007D
ENCODING 125
SWIDTH 576 0
DWIDTH 14 0
BBX 8 22 3 -4
BITMAP
F000
F800
1800
1800
1800
1800
1800
1800
1800
1C00
0F00
0F00
1C00
1800
1800
1800
1800
1800
1800
1800
F800
F000
ENDCHAR
STARTCHAR asciitilde.uni007E
ENCODING 126
SWIDTH 576 0
DWIDTH 14 0
BBX 12 3 1 6
BITMAP
7C10
FFF0
83E0
ENDCHAR
STARTCHAR nbsp.uni00A0
ENCODING 160
SWIDTH 576 0
DWIDTH 14 0
BBX 0 0 0 0
BITMAP
ENDCHAR
STARTCHAR exclamdown.uni00A1
ENCODING 161
SWIDTH 576 0
DWIDTH 14 0
BBX 2 18 6 0
BITMAP
C000
C000
C000
0000
0000
0000
C000
C000
C000
C000
C000
C000
C000
C000
C000
C000
C000
C000
ENDCHAR
STARTCHAR cent.uni00A2
ENCODING 162
SWIDTH 576 0
DWIDTH 14 0
BBX 10 20 2 -4
BITMAP
0200
0200
0200
0F80
3FC0
7240
6200
C200
C200
C200
C200
C200
6200
7240
3FC0
0F80
0200
0200
0200
0200
ENDCHAR
STARTCHAR sterling.uni00A3
ENCODING 163
SWIDTH 576 0
DWIDTH 14 0
BBX 11 18 1 0
BITMAP
03C0
0FE0
0C20
1800
1800
1800
1800
1800
1800
7F80
7F80
1800
1800
1800
1800
1800
FFE0
FFE0
ENDCHAR
STARTCHAR currency.uni00A4
ENCODING 164
SWIDTH 576 0
DWIDTH 14 0
BBX 10 10 3 3
BITMAP
8040
5E80
2100
4080
4080
4080
4080
2100
5E80
8040
ENDCHAR
STARTCHAR yen.uni00A5
ENCODING 165
SWIDTH 576 0
DWIDTH 14 0
BBX 12 18 1 0
BITMAP
E070
6060
70E0
30C0
39C0
1980
FFF0
FFF0
0F00
0600
FFF0
FFF0
0600
0600
0600
0600
0600
0600
ENDCHAR
STARTCHAR brokenbar.uni00A6
ENCODING 166
SWIDTH 576 0
DWIDTH 14 0
BBX 2 21 6 -4
BITMAP
C000
C000
C000
C000
C000
C000
C000
C000
C000
0000
0000
0000
C000
C000
C000
C000
C000
C000
C000
C000
C000
ENDCHAR
STARTCHAR section.uni00A7
ENCODING 167
SWIDTH 576 0
DWIDTH 14 0
BBX 9 20 2 -2
BITMAP
1E00
3F00
7100
6000
6000
3000
3C00
6E00
C700
C380
E180
7180
3B00
0E00
0600
0300
0300
4700
7E00
3C00
ENDCHAR
STARTCHAR dieresis.uni00A8
ENCODING 168
SWIDTH 576 0
DWIDTH 14 0
BBX 6 2 4 16
BITMAP
CC00
CC00
ENDCHAR
STARTCHAR copyright.uni00A9
ENCODING 169
SWIDTH 576 0
DWIDTH 14 0
BBX 14 14 0 2
BITMAP
0FC0
1020
2010
4788
8C44
9804
9804
9804
9804
8C44
4788
2010
1020
0FC0
ENDCHAR
STARTCHAR ordfeminine.uni00AA
ENCODING 170
SWIDTH 576 0
DWIDTH 14 0
BBX 8 12 3 6
BITMAP
3C00
4600
0300
0300
3F00
6300
C300
C300
C700
7B00
0000
FF00
ENDCHAR
STARTCHAR guillemotleft.uni00AB
ENCODING 171
SWIDTH 576 0
DWIDTH 14 0
BBX 10 9 1 2
BITMAP
0840
18C0
3180
6300
C600
6300
3180
18C0
0840
ENDCHAR
STARTCHAR logicalnot.uni00AC
ENCODING 172
SWIDTH 576 0
DWIDTH 14 0
BBX 12 6 1 4
BITMAP
FFF0
FFF0
0030
0030
0030
0030
ENDCHAR
STARTCHAR hyphen.uni002D
ENCODING 45
SWIDTH 576 0
DWIDTH 14 0
BBX 6 2 4 6
BITMAP
FC00
FC00
ENDCHAR
STARTCHAR registered.uni00AE
ENCODING 174
SWIDTH 576 0
DWIDTH 14 0
BBX 14 14 0 2
BITMAP
0FC0
1020
2010
4F88
8CC4
8CC4
8CC4
8F84
8D84
8CC4
4C68
2010
1020
0FC0
ENDCHAR
STARTCHAR macron.uni00AF
ENCODING 175
SWIDTH 576 0
DWIDTH 14 0
BBX 7 2 4 16
BITMAP
FE00
FE00
ENDCHAR
STARTCHAR degree.uni00B0
ENCODING 176
SWIDTH 576 0
DWIDTH 14 0
BBX 7 7 3 11
BITMAP
3800
7C00
C600
C600
C600
7C00
3800
ENDCHAR
STARTCHAR plusminus.uni00B1
ENCODING 177
SWIDTH 576 0
DWIDTH 14 0
BBX 12 14 1 0
BITMAP
0600
0600
0600
0600
FFF0
FFF0
0600
0600
0600
0600
0000
0000
FFF0
FFF0
ENDCHAR
STARTCHAR twosuperior.uni00B2
ENCODING 178
SWIDTH 576 0
DWIDTH 14 0
BBX 6 10 4 8
BITMAP
7800
8C00
0C00
0C00
0C00
1800
3000
6000
C000
FC00
ENDCHAR
STARTCHAR threesuperior.uni00B3
ENCODING 179
SWIDTH 576 0
DWIDTH 14 0
BBX 7 10 4 8
BITMAP
7C00
8600
0600
0600
3C00
0600
0600
0600
8600
7C00
ENDCHAR
STARTCHAR acute.uni00B4
ENCODING 180
SWIDTH 576 0
DWIDTH 14 0
BBX 5 4 5 15
BITMAP
3800
7000
6000
C000
ENDCHAR
STARTCHAR micro.uni00B5
ENCODING 181
SWIDTH 576 0
DWIDTH 14 0
BBX 12 18 2 -5
BITMAP
C060
C060
C060
C060
C060
C060
C060
C060
C060
C060
E0E0
FFF0
DF30
C000
C000
C000
C000
C000
ENDCHAR
STARTCHAR paragraph.uni00B6
ENCODING 182
SWIDTH 576 0
DWIDTH 14 0
BBX 11 20 1 -2
BITMAP
1FE0
7E60
7E60
FE60
FE60
FE60
FE60
7E60
7E60
1E60
0660
0660
0660
0660
0660
0660
0660
0660
0660
0660
ENDCHAR
STARTCHAR periodcentered.uni00B7
ENCODING 183
SWIDTH 576 0
DWIDTH 14 0
BBX 3 4 5 6
BITMAP
E000
E000
E000
E000
ENDCHAR
STARTCHAR cedilla.uni00B8
ENCODING 184
SWIDTH 576 0
DWIDTH 14 0
BBX 5 5 4 -5
BITMAP
1000
1800
1800
F800
F000
ENDCHAR
STARTCHAR onesuperior.uni00B9
ENCODING 185
SWIDTH 576 0
DWIDTH 14 0
BBX 6 10 4 8
BITMAP
F000
3000
3000
3000
3000
3000
3000
3000
3000
FC00
ENDCHAR
STARTCHAR ordmasculine.uni00BA
ENCODING 186
SWIDTH 576 0
DWIDTH 14 0
BBX 8 12 3 6
BITMAP
3C00
6600
C300
C300
C300
C300
C300
C300
6600
3C00
0000
FF00
ENDCHAR
STARTCHAR guillemotright.uni00BB
ENCODING 187
SWIDTH 576 0
DWIDTH 14 0
BBX 10 9 2 2
BITMAP
8400
C600
6300
3180
18C0
3180
6300
C600
8400
ENDCHAR
STARTCHAR onequarter.uni00BC
ENCODING 188
SWIDTH 576 0
DWIDTH 14 0
BBX 12 23 0 -3
BITMAP
7800
1800
1800
1800
1800
1800
1800
1800
1800
7E00
0030
03C0
3C00
C060
00E0
00E0
0160
0360
0260
0460
07F0
0060
0060
ENDCHAR
STARTCHAR onehalf.uni00BD
ENCODING 189
SWIDTH 576 0
DWIDTH 14 0
BBX 12 23 0 -3
BITMAP
7800
1800
1800
1800
1800
1800
1800
1800
1800
7E00
0030
03C0
3C00
C1E0
0230
0030
0030
0070
0060
00E0
01C0
0380
03F0
ENDCHAR
STARTCHAR threequarters.uni00BE
ENCODING 190
SWIDTH 576 0
DWIDTH 14 0
BBX 12 23 0 -3
BITMAP
3E00
4700
0300
0300
1C00
0700
0300
0300
4700
3C00
0030
03C0
3C00
C060
00E0
00E0
0160
0360
0260
0460
07F0
0060
0060
ENDCHAR
STARTCHAR questiondown.uni00BF
ENCODING 191
SWIDTH 576 0
DWIDTH 14 0
BBX 9 18 2 0
BITMAP
0C00
0C00
0C00
0000
0000
0C00
0C00
0C00
1C00
3800
7000
6000
C000
C000
C080
E180
7F00
3E00
ENDCHAR
STARTCHAR Agrave.uni00C0
ENCODING 192
SWIDTH 576 0
DWIDTH 14 0
BBX 11 22 1 0
BITMAP
1C00
0C00
0600
0000
0E00
0E00
0E00
0E00
1B00
1B00
1B00
1B00
3180
3180
3180
3180
7FC0
7FC0
60C0
60C0
C060
C060
ENDCHAR
STARTCHAR Aacute.uni00C1
ENCODING 193
SWIDTH 576 0
DWIDTH 14 0
BBX 11 22 1 0
BITMAP
0700
0600
0C00
0000
0E00
0E00
0E00
0E00
1B00
1B00
1B00
1B00
3180
3180
3180
3180
7FC0
7FC0
60C0
60C0
C060
C060
ENDCHAR
STARTCHAR Acircumflex.uni00C2
ENCODING 194
SWIDTH 576 0
DWIDTH 14 0
BBX 11 22 1 0
BITMAP
0E00
1B00
3180
0000
0E00
0E00
0E00
0E00
1B00
1B00
1B00
1B00
3180
3180
3180
3180
7FC0
7FC0
60C0
60C0
C060
C060
ENDCHAR
STARTCHAR Atilde.uni00C3
ENCODING 195
SWIDTH 576 0
DWIDTH 14 0
BBX 11 21 1 0
BITMAP
1C80
2700
0000
0E00
0E00
0E00
0E00
1B00
1B00
1B00
1B00
3180
3180
3180
3180
7FC0
7FC0
60C0
60C0
C060
C060
ENDCHAR
STARTCHAR Adieresis.uni00C4
ENCODING 196
SWIDTH 576 0
DWIDTH 14 0
BBX 11 21 1 0
BITMAP
1980
1980
0000
0E00
0E00
0E00
0E00
1B00
1B00
1B00
1B00
3180
3180
3180
3180
7FC0
7FC0
60C0
60C0
C060
C060
ENDCHAR
STARTCHAR Aring.uni00C5
ENCODING 197
SWIDTH 576 0
DWIDTH 14 0
BBX 11 22 1 0
BITMAP
0E00
1100
1100
1100
0E00
0E00
0E00
0E00
1B00
1B00
1B00
1B00
3180
3180
3180
3180
7FC0
7FC0
60C0
60C0
C060
C060
ENDCHAR
STARTCHAR AE.uni00C6
ENCODING 198
SWIDTH 576 0
DWIDTH 14 0
BBX 13 18 0 0
BITMAP
0FF8
0FF8
0D80
0D80
1980
1980
1980
1980
31F0
31F0
3180
3180
7F80
7F80
6180
6180
C1F8
C1F8
ENDCHAR
STARTCHAR Ccedilla.uni00C7
ENCODING 199
SWIDTH 576 0
DWIDTH 14 0
BBX 11 23 1 -5
BITMAP
0FC0
1FE0
3820
6000
6000
C000
C000
C000
C000
C000
C000
C000
C000
6000
6000
3820
1FE0
0FC0
0100
0180
0180
0F80
0F00
ENDCHAR
STARTCHAR Egrave.uni00C8
ENCODING 200
SWIDTH 576 0
DWIDTH 14 0
BBX 11 22 1 0
BITMAP
1C00
0C00
0600
0000
FFE0
FFE0
C000
C000
C000
C000
C000
C000
FFC0
FFC0
C000
C000
C000
C000
C000
C000
FFE0
FFE0
ENDCHAR
STARTCHAR Eacute.uni00C9
ENCODING 201
SWIDTH 576 0
DWIDTH 14 0
BBX 11 22 1 0
BITMAP
0700
0600
0C00
0000
FFE0
FFE0
C000
C000
C000
C000
C000
C000
FFC0
FFC0
C000
C000
C000
C000
C000
C000
FFE0
FFE0
ENDCHAR
STARTCHAR Ecircumflex.uni00CA
ENCODING 202
SWIDTH 576 0
DWIDTH 14 0
BBX 11 22 1 0
BITMAP
0E00
1B00
3180
0000
FFE0
FFE0
C000
C000
C000
C000
C000
C000
FFC0
FFC0
C000
C000
C000
C000
C000
C000
FFE0
FFE0
ENDCHAR
STARTCHAR Edieresis.uni00CB
ENCODING 203
SWIDTH 576 0
DWIDTH 14 0
BBX 11 21 1 0
BITMAP
1980
1980
0000
FFE0
FFE0
C000
C000
C000
C000
C000
C000
FFC0
FFC0
C000
C000
C000
C000
C000
C000
FFE0
FFE0
ENDCHAR
STARTCHAR Igrave.uni00CC
ENCODING 204
SWIDTH 576 0
DWIDTH 14 0
BBX 10 22 2 0
BITMAP
3800
1800
0C00
0000
FFC0
FFC0
0C00
0C00
0C00
0C00
0C00
0C00
0C00
0C00
0C00
0C00
0C00
0C00
0C00
0C00
FFC0
FFC0
ENDCHAR
STARTCHAR Iacute.uni00CD
ENCODING 205
SWIDTH 576 0
DWIDTH 14 0
BBX 10 22 2 0
BITMAP
0E00
0C00
1800
0000
FFC0
FFC0
0C00
0C00
0C00
0C00
0C00
0C00
0C00
0C00
0C00
0C00
0C00
0C00
0C00
0C00
FFC0
FFC0
ENDCHAR
STARTCHAR Icircumflex.uni00CE
ENCODING 206
SWIDTH 576 0
DWIDTH 14 0
BBX 10 22 2 0
BITMAP
0E00
1B00
3180
0000
FFC0
FFC0
0C00
0C00
0C00
0C00
0C00
0C00
0C00
0C00
0C00
0C00
0C00
0C00
0C00
0C00
FFC0
FFC0
ENDCHAR
STARTCHAR Idieresis.uni00CF
ENCODING 207
SWIDTH 576 0
DWIDTH 14 0
BBX 10 21 2 0
BITMAP
3300
3300
0000
FFC0
FFC0
0C00
0C00
0C00
0C00
0C00
0C00
0C00
0C00
0C00
0C00
0C00
0C00
0C00
0C00
FFC0
FFC0
ENDCHAR
STARTCHAR Eth.uni00D0
ENCODING 208
SWIDTH 576 0
DWIDTH 14 0
BBX 12 18 0 0
BITMAP
7E00
7F80
61C0
6060
6060
6030
6030
6030
FC30
FC30
6030
6030
6030
6060
6060
61C0
7F80
7E00
ENDCHAR
STARTCHAR Ntilde.uni00D1
ENCODING 209
SWIDTH 576 0
DWIDTH 14 0
BBX 11 21 1 0
BITMAP
1C80
2700
0000
E060
E060
F060
F060
D860
D860
D860
CC60
CC60
C660
C660
C360
C360
C360
C1E0
C1E0
C0E0
C0E0
ENDCHAR
STARTCHAR Ograve.uni00D2
ENCODING 210
SWIDTH 576 0
DWIDTH 14 0
BBX 11 22 1 0
BITMAP
1C00
0C00
0600
0000
1F00
3F80
71C0
60C0
E0E0
C060
C060
C060
C060
C060
C060
C060
C060
E0E0
60C0
71C0
3F80
1F00
ENDCHAR
STARTCHAR Oacute.uni00D3
ENCODING 211
SWIDTH 576 0
DWIDTH 14 0
BBX 11 22 1 0
BITMAP
0700
0600
0C00
0000
1F00
3F80
71C0
60C0
E0E0
C060
C060
C060
C060
C060
C060
C060
C060
E0E0
60C0
71C0
3F80
1F00
ENDCHAR
STARTCHAR Ocircumflex.uni00D4
ENCODING 212
SWIDTH 576 0
DWIDTH 14 0
BBX 11 22 1 0
BITMAP
0E00
1B00
3180
0000
1F00
3F80
71C0
60C0
E0E0
C060
C060
C060
C060
C060
C060
C060
C060
E0E0
60C0
71C0
3F80
1F00
ENDCHAR
STARTCHAR Otilde.uni00D5
ENCODING 213
SWIDTH 576 0
DWIDTH 14 0
BBX 11 21 1 0
BITMAP
1C80
2700
0000
1F00
3F80
71C0
60C0
E0E0
C060
C060
C060
C060
C060
C060
C060
C060
E0E0
60C0
71C0
3F80
1F00
ENDCHAR
STARTCHAR Odieresis.uni00D6
ENCODING 214
SWIDTH 576 0
DWIDTH 14 0
BBX 11 21 1 0
BITMAP
1980
1980
0000
1F00
3F80
71C0
60C0
E0E0
C060
C060
C060
C060
C060
C060
C060
C060
E0E0
60C0
71C0
3F80
1F00
ENDCHAR
STARTCHAR multiply.uni00D7
ENCODING 215
SWIDTH 576 0
DWIDTH 14 0
BBX 10 10 2 3
BITMAP
4080
E1C0
7380
3F00
1E00
1E00
3F00
7380
E1C0
4080
ENDCHAR
STARTCHAR Oslash.uni00D8
ENCODING 216
SWIDTH 576 0
DWIDTH 14 0
BBX 13 18 0 0
BITMAP
0F88
1FD0
38F0
3060
7070
60B0
60B0
6130
6230
6230
6430
6830
6830
7070
3060
78E0
5FC0
8F80
ENDCHAR
STARTCHAR Ugrave.uni00D9
ENCODING 217
SWIDTH 576 0
DWIDTH 14 0
BBX 11 22 1 0
BITMAP
1C00
0C00
0600
0000
C060
C060
C060
C060
C060
C060
C060
C060
C060
C060
C060
C060
C060
C060
C060
60C0
7FC0
1F00
ENDCHAR
STARTCHAR Uacute.uni00DA
ENCODING 218
SWIDTH 576 0
DWIDTH 14 0
BBX 11 22 1 0
BITMAP
0700
0600
0C00
0000
C060
C060
C060
C060
C060
C060
C060
C060
C060
C060
C060
C060
C060
C060
C060
60C0
7FC0
1F00
ENDCHAR
STARTCHAR Ucircumflex.uni00DB
ENCODING 219
SWIDTH 576 0
DWIDTH 14 0
BBX 11 22 1 0
BITMAP
0E00
1B00
3180
0000
C060
C060
C060
C060
C060
C060
C060
C060
C060
C060
C060
C060
C060
C060
C060
60C0
7FC0
1F00
ENDCHAR
STARTCHAR Udieresis.uni00DC
ENCODING 220
SWIDTH 576 0
DWIDTH 14 0
BBX 11 21 1 0
BITMAP
1980
1980
0000
C060
C060
C060
C060
C060
C060
C060
C060
C060
C060
C060
C060
C060
C060
C060
60C0
7FC0
1F00
ENDCHAR
STARTCHAR Yacute.uni00DD
ENCODING 221
SWIDTH 576 0
DWIDTH 14 0
BBX 12 22 1 0
BITMAP
0380
0300
0600
0000
E070
6060
70E0
30C0
39C0
1980
1F80
0F00
0F00
0600
0600
0600
0600
0600
0600
0600
0600
0600
ENDCHAR
STARTCHAR Thorn.uni00DE
ENCODING 222
SWIDTH 576 0
DWIDTH 14 0
BBX 11 18 1 0
BITMAP
C000
C000
C000
FF00
FFC0
C0E0
C060
C060
C060
C060
C0E0
FFC0
FF00
C000
C000
C000
C000
C000
ENDCHAR
STARTCHAR germandbls.uni00DF
ENCODING 223
SWIDTH 576 0
DWIDTH 14 0
BBX 11 18 2 0
BITMAP
3F00
7F80
E1C0
C0C0
C1C0
C700
CC00
CC00
CC00
C700
C380
C1C0
C060
C060
C060
D0E0
DFC0
CF80
ENDCHAR
STARTCHAR agrave.uni00E0
ENCODING 224
SWIDTH 576 0
DWIDTH 14 0
BBX 11 19 2 0
BITMAP
3800
1C00
0C00
0600
0000
0000
3F00
7FC0
40E0
0060
0060
1FE0
7FE0
E060
C060
C0E0
E1E0
7F60
3E60
ENDCHAR
STARTCHAR aacute.uni00E1
ENCODING 225
SWIDTH 576 0
DWIDTH 14 0
BBX 11 19 2 0
BITMAP
0380
0700
0600
0C00
0000
0000
3F00
7FC0
40E0
0060
0060
1FE0
7FE0
E060
C060
C0E0
E1E0
7F60
3E60
ENDCHAR
STARTCHAR acircumflex.uni00E2
ENCODING 226
SWIDTH 576 0
DWIDTH 14 0
BBX 11 19 2 0
BITMAP
0400
0E00
1B00
3180
0000
0000
3F00
7FC0
40E0
0060
0060
1FE0
7FE0
E060
C060
C0E0
E1E0
7F60
3E60
ENDCHAR
STARTCHAR atilde.uni00E3
ENCODING 227
SWIDTH 576 0
DWIDTH 14 0
BBX 11 19 2 0
BITMAP
1C80
2E80
2700
0000
0000
0000
3F00
7FC0
40E0
0060
0060
1FE0
7FE0
E060
C060
C0E0
E1E0
7F60
3E60
ENDCHAR
STARTCHAR adieresis.uni00E4
ENCODING 228
SWIDTH 576 0
DWIDTH 14 0
BBX 11 18 2 0
BITMAP
1980
1980
0000
0000
0000
3F00
7FC0
40E0
0060
0060
1FE0
7FE0
E060
C060
C0E0
E1E0
7F60
3E60
ENDCHAR
STARTCHAR aring.uni00E5
ENCODING 229
SWIDTH 576 0
DWIDTH 14 0
BBX 11 21 2 0
BITMAP
0F00
1980
1080
1080
1980
0F00
0000
0000
3F00
7FC0
40E0
0060
0060
1FE0
7FE0
E060
C060
C0E0
E1E0
7F60
3E60
ENDCHAR
STARTCHAR ae.uni00E6
ENCODING 230
SWIDTH 576 0
DWIDTH 14 0
BBX 13 13 0 0
BITMAP
3CE0
7FF0
4718
0318
0318
3FF8
7FF8
E300
C300
C300
E788
7FF8
3CF0
ENDCHAR
STARTCHAR ccedilla.uni00E7
ENCODING 231
SWIDTH 576 0
DWIDTH 14 0
BBX 10 18 2 -5
BITMAP
0F80
3FC0
7040
6000
C000
C000
C000
C000
C000
6000
7040
3FC0
0F80
0200
0300
0300
1F00
1E00
ENDCHAR
STARTCHAR egrave.uni00E8
ENCODING 232
SWIDTH 576 0
DWIDTH 14 0
BBX 11 19 2 0
BITMAP
3800
1C00
0C00
0600
0000
0000
1F00
3FC0
70C0
6060
C060
FFE0
FFE0
C000
C000
6000
7060
3FE0
0FC0
ENDCHAR
STARTCHAR eacute.uni00E9
ENCODING 233
SWIDTH 576 0
DWIDTH 14 0
BBX 11 19 2 0
BITMAP
0380
0700
0600
0C00
0000
0000
1F00
3FC0
70C0
6060
C060
FFE0
FFE0
C000
C000
6000
7060
3FE0
0FC0
ENDCHAR
STARTCHAR ecircumflex.uni00EA
ENCODING 234
SWIDTH 576 0
DWIDTH 14 0
BBX 11 19 2 0
BITMAP
0400
0E00
1B00
3180
0000
0000
1F00
3FC0
70C0
6060
C060
FFE0
FFE0
C000
C000
6000
7060
3FE0
0FC0
ENDCHAR
STARTCHAR edieresis.uni00EB
ENCODING 235
SWIDTH 576 0
DWIDTH 14 0
BBX 11 18 2 0
BITMAP
1980
1980
0000
0000
0000
1F00
3FC0
70C0
6060
C060
FFE0
FFE0
C000
C000
6000
7060
3FE0
0FC0
ENDCHAR
STARTCHAR igrave.uni00EC
ENCODING 236
SWIDTH 576 0
DWIDTH 14 0
BBX 10 19 2 0
BITMAP
7000
3800
1800
0C00
0000
0000
7C00
7C00
0C00
0C00
0C00
0C00
0C00
0C00
0C00
0C00
0C00
FFC0
FFC0
ENDCHAR
STARTCHAR iacute.uni00ED
ENCODING 237
SWIDTH 576 0
DWIDTH 14 0
BBX 10 19 2 0
BITMAP
0380
0700
0600
0C00
0000
0000
7C00
7C00
0C00
0C00
0C00
0C00
0C00
0C00
0C00
0C00
0C00
FFC0
FFC0
ENDCHAR
STARTCHAR icircumflex.uni00EE
ENCODING 238
SWIDTH 576 0
DWIDTH 14 0
BBX 10 19 2 0
BITMAP
0800
1C00
3600
6300
0000
0000
7C00
7C00
0C00
0C00
0C00
0C00
0C00
0C00
0C00
0C00
0C00
FFC0
FFC0
ENDCHAR
STARTCHAR idieresis.uni00EF
ENCODING 239
SWIDTH 576 0
DWIDTH 14 0
BBX 10 18 2 0
BITMAP
3300
3300
0000
0000
0000
7C00
7C00
0C00
0C00
0C00
0C00
0C00
0C00
0C00
0C00
0C00
FFC0
FFC0
ENDCHAR
STARTCHAR eth.uni00F0
ENCODING 240
SWIDTH 576 0
DWIDTH 14 0
BBX 11 18 2 0
BITMAP
3800
1FC0
1E00
6700
0300
1F80
3FC0
70C0
E0C0
C060
C060
C060
C060
C060
E0E0
71C0
3F80
1F00
ENDCHAR
STARTCHAR ntilde.uni00F1
ENCODING 241
SWIDTH 576 0
DWIDTH 14 0
BBX 11 19 2 0
BITMAP
1C80
2E80
2700
0000
0000
0000
CF80
DFC0
F0E0
E060
C060
C060
C060
C060
C060
C060
C060
C060
C060
ENDCHAR
STARTCHAR ograve.uni00F2
ENCODING 242
SWIDTH 576 0
DWIDTH 14 0
BBX 11 19 2 0
BITMAP
3800
1C00
0C00
0600
0000
0000
1F00
3F80
71C0
60C0
C060
C060
C060
C060
C060
60C0
71C0
3F80
1F00
ENDCHAR
STARTCHAR oacute.uni00F3
ENCODING 243
SWIDTH 576 0
DWIDTH 14 0
BBX 11 19 2 0
BITMAP
0380
0700
0600
0C00
0000
0000
1F00
3F80
71C0
60C0
C060
C060
C060
C060
C060
60C0
71C0
3F80
1F00
ENDCHAR
STARTCHAR ocircumflex.uni00F4
ENCODING 244
SWIDTH 576 0
DWIDTH 14 0
BBX 11 19 2 0
BITMAP
0400
0E00
1B00
3180
0000
0000
1F00
3F80
71C0
60C0
C060
C060
C060
C060
C060
60C0
71C0
3F80
1F00
ENDCHAR
STARTCHAR otilde.uni00F5
ENCODING 245
SWIDTH 576 0
DWIDTH 14 0
BBX 11 19 2 0
BITMAP
1C80
2E80
2700
0000
0000
0000
1F00
3F80
71C0
60C0
C060
C060
C060
C060
C060
60C0
71C0
3F80
1F00
ENDCHAR
STARTCHAR odieresis.uni00F6
ENCODING 246
SWIDTH 576 0
DWIDTH 14 0
BBX 11 18 2 0
BITMAP
3180
3180
0000
0000
0000
1F00
3F80
71C0
60C0
C060
C060
C060
C060
C060
60C0
71C0
3F80
1F00
ENDCHAR
STARTCHAR divide.uni00F7
ENCODING 247
SWIDTH 576 0
DWIDTH 14 0
BBX 13 12 1 2
BITMAP
0700
0700
0700
0000
0000
FFF8
FFF8
0000
0000
0700
0700
0700
ENDCHAR
STARTCHAR oslash.uni00F8
ENCODING 248
SWIDTH 576 0
DWIDTH 14 0
BBX 13 13 1 0
BITMAP
0F98
1FF8
38F0
30E0
61F0
63B0
6730
6E30
7C30
3860
78E0
FFC0
CF80
ENDCHAR
STARTCHAR ugrave.uni00F9
ENCODING 249
SWIDTH 576 0
DWIDTH 14 0
BBX 11 19 2 0
BITMAP
3800
1C00
0C00
0600
0000
0000
C060
C060
C060
C060
C060
C060
C060
C060
C060
C0E0
E1E0
7F60
3E60
ENDCHAR
STARTCHAR uacute.uni00FA
ENCODING 250
SWIDTH 576 0
DWIDTH 14 0
BBX 11 19 2 0
BITMAP
0380
0700
0600
0C00
0000
0000
C060
C060
C060
C060
C060
C060
C060
C060
C060
C0E0
E1E0
7F60
3E60
ENDCHAR
STARTCHAR x-hat.uni0302
ENCODING 770
SWIDTH 576 0
DWIDTH 14 0
BBX 11 18 2 0
BITMAP
0E00
3F80
F1E0
0000
0000
E0E0
71C0
3180
3B80
1F00
0E00
0E00
0E00
1B00
3B80
3180
60C0
E0E0
ENDCHAR
STARTCHAR x-bar.uni0304
ENCODING 772
SWIDTH 576 0
DWIDTH 14 0
BBX 11 18 2 0
BITMAP
7FC0
7FC0
0000
0000
0000
E0E0
71C0
3180
3B80
1F00
0E00
0E00
0E00
1B00
3B80
3180
60C0
E0E0
ENDCHAR
STARTCHAR y-hat.uni0177
ENCODING 375
SWIDTH 576 0
DWIDTH 14 0
BBX 11 23 2 -5
BITMAP
0E00
3F80
F1E0
0000
0000
C060
60C0
60C0
60C0
3180
3180
3980
1B00
1B00
1F00
0E00
0E00
0600
0C00
0C00
1C00
7800
7000
ENDCHAR
STARTCHAR thorn.uni00FE
ENCODING 254
SWIDTH 576 0
DWIDTH 14 0
BBX 11 23 2 -5
BITMAP
C000
C000
C000
C000
C000
CF00
FF80
F1C0
E0E0
C060
C060
C060
C060
C060
E0E0
F1C0
FF80
CF00
C000
C000
C000
C000
C000
ENDCHAR
STARTCHAR y-bar.uni0233
ENCODING 563
SWIDTH 576 0
DWIDTH 14 0
BBX 11 23 2 -5
BITMAP
7FC0
7FC0
0000
0000
0000
C060
60C0
60C0
60C0
3180
3180
3980
1B00
1B00
1F00
0E00
0E00
0600
0C00
0C00
1C00
7800
7000
ENDCHAR
STARTCHAR Cacute.uni0106
ENCODING 262
SWIDTH 576 0
DWIDTH 14 0
BBX 11 22 1 0
BITMAP
0380
0300
0600
0000
0FC0
1FE0
3820
6000
6000
C000
C000
C000
C000
C000
C000
C000
C000
6000
6000
3820
1FE0
0FC0
ENDCHAR
STARTCHAR cacute.uni0107
ENCODING 263
SWIDTH 576 0
DWIDTH 14 0
BBX 10 19 2 0
BITMAP
0380
0700
0600
0C00
0000
0000
0F80
3FC0
7040
6000
C000
C000
C000
C000
C000
6000
7040
3FC0
0F80
ENDCHAR
STARTCHAR Ccaron.uni010C
ENCODING 268
SWIDTH 576 0
DWIDTH 14 0
BBX 11 22 1 0
BITMAP
0C60
06C0
0380
0000
0FC0
1FE0
3820
6000
6000
C000
C000
C000
C000
C000
C000
C000
C000
6000
6000
3820
1FE0
0FC0
ENDCHAR
STARTCHAR ccaron.uni010D
ENCODING 269
SWIDTH 576 0
DWIDTH 14 0
BBX 10 19 2 0
BITMAP
3180
1B00
0E00
0400
0000
0000
0F80
3FC0
7040
6000
C000
C000
C000
C000
C000
6000
7040
3FC0
0F80
ENDCHAR
STARTCHAR dcroat.uni0111
ENCODING 273
SWIDTH 576 0
DWIDTH 14 0
BBX 12 18 2 0
BITMAP
0060
0060
03F0
03F0
0060
1E60
3FE0
71E0
E0E0
C060
C060
C060
C060
C060
E0E0
71E0
3FE0
1E60
ENDCHAR
STARTCHAR Gbreve.uni011E
ENCODING 286
SWIDTH 576 0
DWIDTH 14 0
BBX 11 22 1 0
BITMAP
2080
3F80
1F00
0000
0F80
3FC0
3040
6000
6000
C000
C000
C000
C000
C1E0
C1E0
C060
C060
6060
6060
3060
3FE0
0F80
ENDCHAR
STARTCHAR gbreve.uni011F
ENCODING 287
SWIDTH 576 0
DWIDTH 14 0
BBX 11 24 2 -5
BITMAP
4100
6300
3E00
1C00
0000
0000
1E60
3FE0
71E0
E0E0
C060
C060
C060
C060
C060
E0E0
71E0
3FE0
1E60
0060
0060
40C0
7F80
3F00
ENDCHAR
STARTCHAR Idotaccent.uni0130
ENCODING 304
SWIDTH 576 0
DWIDTH 14 0
BBX 10 21 2 0
BITMAP
0C00
0C00
0000
FFC0
FFC0
0C00
0C00
0C00
0C00
0C00
0C00
0C00
0C00
0C00
0C00
0C00
0C00
0C00
0C00
FFC0
FFC0
ENDCHAR
STARTCHAR dotlessi.uni0131
ENCODING 305
SWIDTH 576 0
DWIDTH 14 0
BBX 10 13 2 0
BITMAP
7C00
7C00
0C00
0C00
0C00
0C00
0C00
0C00
0C00
0C00
0C00
FFC0
FFC0
ENDCHAR
STARTCHAR Lslash.uni0141
ENCODING 321
SWIDTH 576 0
DWIDTH 14 0
BBX 12 18 0 0
BITMAP
6000
6000
6000
6000
6000
6300
6F00
7C00
F000
E000
6000
6000
6000
6000
6000
6000
7FF0
7FF0
ENDCHAR
STARTCHAR lslash.uni0142
ENCODING 322
SWIDTH 576 0
DWIDTH 14 0
BBX 10 18 1 0
BITMAP
7C00
7C00
0C00
0C00
0C00
0CC0
0FC0
0F00
3C00
FC00
CC00
0C00
0C00
0C00
0C00
0E00
07C0
03C0
ENDCHAR
STARTCHAR OE.uni0152
ENCODING 338
SWIDTH 576 0
DWIDTH 14 0
BBX 13 18 1 0
BITMAP
1FF8
3FF8
7180
6180
C180
C180
C180
C180
C1F8
C1F8
C180
C180
C180
C180
6180
7180
3FF8
1FF8
ENDCHAR
STARTCHAR oe.uni0153
ENCODING 339
SWIDTH 576 0
DWIDTH 14 0
BBX 13 13 0 0
BITMAP
3CE0
7FF0
6718
C318
C318
C3F8
C3F8
C300
C300
C300
6788
7FF8
3CF0
ENDCHAR
STARTCHAR Scedilla.uni015E
ENCODING 350
SWIDTH 576 0
DWIDTH 14 0
BBX 11 23 1 -5
BITMAP
1F80
7FC0
6040
C000
C000
C000
C000
7000
7E00
1F80
01C0
00E0
0060
0060
0060
C0C0
FFC0
7F00
0200
0300
0300
1F00
1E00
ENDCHAR
STARTCHAR scedilla.uni015F
ENCODING 351
SWIDTH 576 0
DWIDTH 14 0
BBX 11 18 2 -5
BITMAP
3F80
7FC0
E040
C000
E000
7E00
3FC0
03E0
0060
0060
C0E0
FFC0
3F00
0400
0600
0600
3E00
3C00
ENDCHAR
STARTCHAR Scaron.uni0160
ENCODING 352
SWIDTH 576 0
DWIDTH 14 0
BBX 11 22 1 0
BITMAP
18C0
0D80
0700
0000
1F80
7FC0
6040
C000
C000
C000
C000
7000
7E00
1F80
01C0
00E0
0060
0060
0060
C0C0
FFC0
7F00
ENDCHAR
STARTCHAR scaron.uni0161
ENCODING 353
SWIDTH 576 0
DWIDTH 14 0
BBX 11 19 2 0
BITMAP
3180
1B00
0E00
0400
0000
0000
3F80
7FC0
E040
C000
E000
7E00
3FC0
03E0
0060
0060
C0E0
FFC0
3F00
ENDCHAR
STARTCHAR Ydieresis.uni0178
ENCODING 376
SWIDTH 576 0
DWIDTH 14 0
BBX 12 21 1 0
BITMAP
1980
1980
0000
E070
6060
70E0
30C0
39C0
1980
1F80
0F00
0F00
0600
0600
0600
0600
0600
0600
0600
0600
0600
ENDCHAR
STARTCHAR Zcaron.uni017D
ENCODING 381
SWIDTH 576 0
DWIDTH 14 0
BBX 11 22 1 0
BITMAP
18C0
0D80
0700
0000
FFE0
FFE0
00E0
00C0
0180
0380
0300
0700
0600
0C00
1C00
1800
3800
3000
6000
E000
FFE0
FFE0
ENDCHAR
STARTCHAR zcaron.uni017E
ENCODING 382
SWIDTH 576 0
DWIDTH 14 0
BBX 11 19 2 0
BITMAP
3180
1B00
0E00
0400
0000
0000
FFE0
FFE0
00C0
01C0
0380
0700
0E00
1C00
3800
7000
6000
FFE0
FFE0
ENDCHAR
STARTCHAR florin.uni0192
ENCODING 402
SWIDTH 576 0
DWIDTH 14 0
BBX 13 23 0 -5
BITMAP
0070
00F8
01C0
0180
0180
0180
0180
0300
1FF0
1FF0
0300
0300
0300
0600
0600
0600
0600
0600
0600
0C00
9C00
F800
7000
ENDCHAR
STARTCHAR circumflex.uni02C6
ENCODING 710
SWIDTH 576 0
DWIDTH 14 0
BBX 7 4 3 15
BITMAP
1000
3800
6C00
C600
ENDCHAR
STARTCHAR caron.uni02C7
ENCODING 711
SWIDTH 576 0
DWIDTH 14 0
BBX 7 4 3 15
BITMAP
C600
6C00
3800
1000
ENDCHAR
STARTCHAR breve.uni02D8
ENCODING 728
SWIDTH 576 0
DWIDTH 14 0
BBX 7 4 3 15
BITMAP
8200
C600
7C00
3800
ENDCHAR
STARTCHAR dotaccent.uni02D9
ENCODING 729
SWIDTH 576 0
DWIDTH 14 0
BBX 2 2 6 16
BITMAP
C000
C000
ENDCHAR
STARTCHAR ring.uni02DA
ENCODING 730
SWIDTH 576 0
DWIDTH 14 0
BBX 6 6 4 15
BITMAP
7800
CC00
8400
8400
CC00
7800
ENDCHAR
STARTCHAR ogonek.uni02DB
ENCODING 731
SWIDTH 576 0
DWIDTH 14 0
BBX 4 5 5 -5
BITMAP
4000
C000
C000
F000
7000
ENDCHAR
STARTCHAR tilde.uni02DC
ENCODING 732
SWIDTH 576 0
DWIDTH 14 0
BBX 7 3 3 16
BITMAP
7200
BA00
9C00
ENDCHAR
STARTCHAR hungarumlaut.uni02DD
ENCODING 733
SWIDTH 576 0
DWIDTH 14 0
BBX 8 4 4 15
BITMAP
7700
6600
CC00
8800
ENDCHAR
STARTCHAR Omega.uni03A9
ENCODING 937
SWIDTH 576 0
DWIDTH 14 0
BBX 12 17 1 0
BITMAP
0F00
3FC0
70E0
6060
E070
C030
C030
C030
C030
C030
C030
C030
6060
6060
30C0
F9F0
F9F0
ENDCHAR
STARTCHAR endash.uni2013
ENCODING 8211
SWIDTH 576 0
DWIDTH 14 0
BBX 8 2 3 5
BITMAP
FF00
FF00
ENDCHAR
STARTCHAR emdash.uni2014
ENCODING 8212
SWIDTH 576 0
DWIDTH 14 0
BBX 12 2 1 5
BITMAP
FFF0
FFF0
ENDCHAR
STARTCHAR quoteleft.uni2018
ENCODING 8216
SWIDTH 576 0
DWIDTH 14 0
BBX 4 7 5 11
BITMAP
3000
7000
6000
E000
E000
E000
E000
ENDCHAR
STARTCHAR quoteright.uni2019
ENCODING 8217
SWIDTH 576 0
DWIDTH 14 0
BBX 4 7 5 11
BITMAP
7000
7000
7000
7000
6000
E000
C000
ENDCHAR
STARTCHAR quotesinglbase.uni201A
ENCODING 8218
SWIDTH 576 0
DWIDTH 14 0
BBX 4 7 5 -3
BITMAP
7000
7000
7000
7000
6000
E000
C000
ENDCHAR
STARTCHAR quotedblleft.uni201C
ENCODING 8220
SWIDTH 576 0
DWIDTH 14 0
BBX 9 7 2 11
BITMAP
3180
7380
6300
E700
E700
E700
E700
ENDCHAR
STARTCHAR quotedblright.uni201D
ENCODING 8221
SWIDTH 576 0
DWIDTH 14 0
BBX 9 7 2 11
BITMAP
7380
7380
7380
7380
6300
E700
C600
ENDCHAR
STARTCHAR quotedblbase.uni201E
ENCODING 8222
SWIDTH 576 0
DWIDTH 14 0
BBX 9 7 2 -3
BITMAP
7380
7380
7380
7380
6300
E700
C600
ENDCHAR
STARTCHAR dagger.uni2020
ENCODING 8224
SWIDTH 576 0
DWIDTH 14 0
BBX 10 20 2 -2
BITMAP
0C00
0C00
0C00
0C00
0C00
FFC0
FFC0
0C00
0C00
0C00
0C00
0C00
0C00
0C00
0C00
0C00
0C00
0C00
0C00
0C00
ENDCHAR
STARTCHAR daggerdbl.uni2021
ENCODING 8225
SWIDTH 576 0
DWIDTH 14 0
BBX 10 20 2 -2
BITMAP
0C00
0C00
0C00
0C00
0C00
FFC0
FFC0
0C00
0C00
0C00
0C00
0C00
0C00
FFC0
FFC0
0C00
0C00
0C00
0C00
0C00
ENDCHAR
STARTCHAR bullet.uni2022
ENCODING 8226
SWIDTH 576 0
DWIDTH 14 0
BBX 7 7 4 5
BITMAP
3800
7C00
FE00
FE00
FE00
7C00
3800
ENDCHAR
STARTCHAR perthousand.uni2030
ENCODING 8240
SWIDTH 576 0
DWIDTH 14 0
BBX 13 18 0 0
BITMAP
7800
CC00
8400
8400
CC00
7800
0038
01C0
0E00
7000
0000
0000
78F0
CD98
8508
8508
CD98
78F0
ENDCHAR
STARTCHAR guilsinglleft.uni2039
ENCODING 8249
SWIDTH 576 0
DWIDTH 14 0
BBX 5 9 4 2
BITMAP
0800
1800
3000
6000
C000
6000
3000
1800
0800
ENDCHAR
STARTCHAR guilsinglright.uni203A
ENCODING 8250
SWIDTH 576 0
DWIDTH 14 0
BBX 5 9 5 2
BITMAP
8000
C000
6000
3000
1800
3000
6000
C000
8000
ENDCHAR
STARTCHAR Euro.uni20AC
ENCODING 8364
SWIDTH 576 0
DWIDTH 14 0
BBX 12 18 0 0
BITMAP
03E0
0FF0
1C10
1800
3800
3000
FF80
FF80
3000
3000
FF80
FF80
3000
3800
1800
1C10
0FF0
03E0
ENDCHAR
STARTCHAR trademark.uni2122
ENCODING 8482
SWIDTH 576 0
DWIDTH 14 0
BBX 13 7 0 11
BITMAP
FB18
2318
22A8
22A8
2248
2248
2208
ENDCHAR
STARTCHAR partialdiff.uni2202
ENCODING 8706
SWIDTH 576 0
DWIDTH 14 0
BBX 10 16 2 0
BITMAP
1E00
3900
1080
0080
00C0
00C0
00C0
3CC0
72C0
61C0
C1C0
C1C0
C180
C380
6700
3C00
ENDCHAR
STARTCHAR Delta.uni2206
ENCODING 8710
SWIDTH 576 0
DWIDTH 14 0
BBX 14 18 0 0
BITMAP
0300
0300
0780
0780
0780
0FC0
0FC0
0CC0
1CE0
1CE0
1CE0
3870
3870
3870
7038
7038
7FF8
FFFC
ENDCHAR
STARTCHAR Pi.uni03A0
ENCODING 928
SWIDTH 576 0
DWIDTH 14 0
BBX 10 18 2 0
BITMAP
FFC0
FFC0
C0C0
C0C0
C0C0
C0C0
C0C0
C0C0
C0C0
C0C0
C0C0
C0C0
C0C0
C0C0
C0C0
C0C0
C0C0
C0C0
ENDCHAR
STARTCHAR summation.uni2211
ENCODING 8721
SWIDTH 576 0
DWIDTH 14 0
BBX 11 23 2 -5
BITMAP
FFE0
FFE0
6000
6000
3000
3000
1800
0C00
0C00
0600
0600
0300
0600
0600
0C00
0C00
1800
3000
3000
6000
6000
FFE0
FFE0
ENDCHAR
STARTCHAR minus.uni2212
ENCODING 8722
SWIDTH 576 0
DWIDTH 14 0
BBX 10 2 2 7
BITMAP
FFC0
FFC0
ENDCHAR
STARTCHAR slashdiv.uni2215
ENCODING 8725
SWIDTH 576 0
DWIDTH 14 0
BBX 11 20 1 -2
BITMAP
0060
0060
00C0
00C0
0180
0180
0300
0300
0600
0600
0C00
0C00
1800
1800
3000
3000
6000
6000
C000
C000
ENDCHAR
STARTCHAR bulletop.uni2219
ENCODING 8729
SWIDTH 576 0
DWIDTH 14 0
BBX 3 4 5 6
BITMAP
E000
E000
E000
E000
ENDCHAR
STARTCHAR radical.uni221A
ENCODING 8730
SWIDTH 576 0
DWIDTH 14 0
BBX 13 21 1 -1
BITMAP
0018
0018
0018
0030
0030
0030
0060
0060
0060
F0C0
F0C0
30C0
1980
1980
1980
0900
0F00
0F00
0600
0600
0600
ENDCHAR
STARTCHAR infinity.uni221E
ENCODING 8734
SWIDTH 576 0
DWIDTH 14 0
BBX 13 9 0 3
BITMAP
38E0
7DF0
C518
8208
8208
8208
C518
7DF0
38E0
ENDCHAR
STARTCHAR approxequal.uni2248
ENCODING 8776
SWIDTH 576 0
DWIDTH 14 0
BBX 12 7 1 4
BITMAP
7C10
FFF0
83E0
0000
7C10
FFF0
83E0
ENDCHAR
STARTCHAR notequal.uni2260
ENCODING 8800
SWIDTH 576 0
DWIDTH 14 0
BBX 12 13 1 1
BITMAP
0030
0060
00C0
FFF0
FFF0
0300
0600
0C00
FFF0
FFF0
3000
6000
C000
ENDCHAR
STARTCHAR lozenge.uni25CA
ENCODING 9674
SWIDTH 576 0
DWIDTH 14 0
BBX 11 23 1 -5
BITMAP
0400
0400
0E00
0A00
1B00
1100
3180
2080
60C0
4040
C060
8020
C060
4040
60C0
2080
3180
1100
1B00
0A00
0E00
0400
0400
ENDCHAR
STARTCHAR fi.uniFB01
ENCODING 64257
SWIDTH 576 0
DWIDTH 14 0
BBX 13 18 0 0
BITMAP
0F18
1F18
3018
3000
3000
FFF8
FFF8
3018
3018
3018
3018
3018
3018
3018
3018
3018
3018
3018
ENDCHAR
STARTCHAR fl.uniFB02
ENCODING 64258
SWIDTH 576 0
DWIDTH 14 0
BBX 13 18 0 0
BITMAP
0FF8
1FF8
3018
3018
3018
FE18
FE18
3018
3018
3018
3018
3018
3018
3018
3018
3018
3018
3018
ENDCHAR
STARTCHAR Sigma.uni03A3
ENCODING 931
SWIDTH 576 0
DWIDTH 14 0
BBX 11 17 1 0
BITMAP
FFE0
FFE0
E000
7000
3800
1C00
0E00
0700
0380
0700
0E00
1C00
3800
7000
E000
FFE0
FFE0
ENDCHAR
STARTCHAR mu.uni03BC
ENCODING 956
SWIDTH 576 0
DWIDTH 14 0
BBX 12 18 2 -5
BITMAP
C060
C060
C060
C060
C060
C060
C060
C060
C060
C060
E0E0
FFF0
DF30
C000
C000
C000
C000
C000
ENDCHAR
STARTCHAR pi.uni03C0
ENCODING 960
SWIDTH 576 0
DWIDTH 14 0
BBX 12 13 1 0
BITMAP
FFF0
FFF0
60C0
60C0
60C0
60C0
60C0
60C0
60C0
60C0
60C0
60F0
6070
ENDCHAR
STARTCHAR exponent.uni1D07
ENCODING 7431
SWIDTH 576 0
DWIDTH 14 0
BBX 9 14 2 0
BITMAP
FF80
FF80
C000
C000
C000
C000
FF80
FF80
C000
C000
C000
C000
FF80
FF80
ENDCHAR
STARTCHAR ellipsis.uni2026
ENCODING 8230
SWIDTH 576 0
DWIDTH 14 0
BBX 13 4 1 0
BITMAP
E738
E738
E738
E738
ENDCHAR
STARTCHAR arrowleft.uni2190
ENCODING 8592
SWIDTH 576 0
DWIDTH 14 0
BBX 13 11 0 1
BITMAP
0400
0C00
1800
3800
7FF8
FFF8
7FF8
3800
1800
0C00
0400
ENDCHAR
STARTCHAR arrowup.uni2191
ENCODING 8593
SWIDTH 576 0
DWIDTH 14 0
BBX 11 23 1 -5
BITMAP
0400
0E00
1F00
3F80
7FC0
CE60
0E00
0E00
0E00
0E00
0E00
0E00
0E00
0E00
0E00
0E00
0E00
0E00
0E00
0E00
0E00
0E00
0E00
ENDCHAR
STARTCHAR arrowright.uni2192
ENCODING 8594
SWIDTH 576 0
DWIDTH 14 0
BBX 14 11 0 1
BITMAP
0080
00C0
0060
0070
FFF8
FFFC
FFF8
0070
0060
00C0
0080
ENDCHAR
STARTCHAR arrowdown.uni2193
ENCODING 8595
SWIDTH 576 0
DWIDTH 14 0
BBX 11 23 1 -5
BITMAP
0E00
0E00
0E00
0E00
0E00
0E00
0E00
0E00
0E00
0E00
0E00
0E00
0E00
0E00
0E00
0E00
0E00
CE60
7FC0
3F80
1F00
0E00
0400
ENDCHAR
STARTCHAR mesangle.uni2221
ENCODING 8737
SWIDTH 576 0
DWIDTH 14 0
BBX 13 16 0 0
BITMAP
0060
00C0
00C0
0180
0180
0300
0600
0600
0F00
0FC0
18C0
3060
3060
6060
7FF8
FFF8
ENDCHAR
STARTCHAR integral.uni222B
ENCODING 8747
SWIDTH 576 0
DWIDTH 14 0
BBX 10 22 2 -4
BITMAP
0180
02C0
06C0
0400
0400
0C00
0C00
0C00
0C00
0C00
0C00
0C00
0C00
0C00
0C00
0C00
0C00
0800
0800
D800
D000
E000
ENDCHAR
STARTCHAR lessequal.uni2264
ENCODING 8804
SWIDTH 576 0
DWIDTH 14 0
BBX 12 13 1 0
BITMAP
0010
00F0
07E0
3F00
F800
F800
3F00
07E0
00F0
0010
0000
FFF0
FFF0
ENDCHAR
STARTCHAR greaterequal.uni2265
ENCODING 8805
SWIDTH 576 0
DWIDTH 14 0
BBX 12 13 1 0
BITMAP
8000
F000
7E00
0FC0
01F0
01F0
0FC0
7E00
F000
8000
0000
FFF0
FFF0
ENDCHAR
STARTCHAR lf.uni240A
ENCODING 9226
SWIDTH 576 0
DWIDTH 14 0
BBX 13 19 0 -1
BITMAP
C000
C000
C000
C000
C000
C000
C000
F800
F800
01F8
01F8
0180
0180
01F0
01F0
0180
0180
0180
0180
ENDCHAR
STARTCHAR esc.uni241B
ENCODING 9243
SWIDTH 576 0
DWIDTH 14 0
BBX 13 23 0 -4
BITMAP
F000
8000
8000
8000
F000
8000
8000
8380
F400
0400
0200
0100
0080
0080
0080
0738
0040
0040
0040
0040
0040
0040
0038
ENDCHAR
STARTCHAR bdlvr.uni251C
ENCODING 9500
SWIDTH 576 0
DWIDTH 14 0
BBX 9 22 3 -3
BITMAP
E000
E000
E000
E000
E000
E000
E000
E000
E000
E000
FF80
FF80
FF80
E000
E000
E000
E000
E000
E000
E000
E000
E000
ENDCHAR
STARTCHAR shade.uni2592
ENCODING 9618
SWIDTH 576 0
DWIDTH 14 0
BBX 14 23 0 -4
BITMAP
5554
0000
AAA8
0000
5554
0000
AAA8
0000
5554
0000
AAA8
0000
5554
0000
AAA8
0000
5554
0000
AAA8
0000
5554
0000
AAA8
ENDCHAR
STARTCHAR filledbox.uni25A0
ENCODING 9632
SWIDTH 576 0
DWIDTH 14 0
BBX 10 10 2 2
BITMAP
FFC0
FFC0
FFC0
FFC0
FFC0
FFC0
FFC0
FFC0
FFC0
FFC0
ENDCHAR
STARTCHAR triagup.uni25B2
ENCODING 9650
SWIDTH 576 0
DWIDTH 14 0
BBX 12 12 1 1
BITMAP
0600
0600
0F00
0F00
1F80
1F80
3FC0
3FC0
7FE0
7FE0
FFF0
FFF0
ENDCHAR
STARTCHAR triagright.uni25B6
ENCODING 9654
SWIDTH 576 0
DWIDTH 14 0
BBX 12 11 1 3
BITMAP
C000
F000
FC00
FF00
FFC0
FFF0
FFC0
FF00
FC00
F000
C000
ENDCHAR
STARTCHAR triagdn.uni25BC
ENCODING 9660
SWIDTH 576 0
DWIDTH 14 0
BBX 12 12 1 1
BITMAP
FFF0
FFF0
7FE0
7FE0
3FC0
3FC0
1F80
1F80
0F00
0F00
0600
0600
ENDCHAR
STARTCHAR uparrtipleft.uni21B0
ENCODING 8624
SWIDTH 832 0
DWIDTH 14 0
BBX 13 18 0 0
BITMAP
0400
0C00
1800
3800
7FF0
FFF8
7FF8
3838
1838
0C38
0438
0038
0038
0038
0038
0038
0038
0038
ENDCHAR
STARTCHAR uparrtipright.uni21B1
ENCODING 8625
SWIDTH 832 0
DWIDTH 14 0
BBX 13 18 1 0
BITMAP
0100
0180
00C0
00E0
7FF0
FFF8
FFF0
E0E0
E0C0
E180
E100
E000
E000
E000
E000
E000
E000
E000
ENDCHAR
STARTCHAR xsuperior.uni02E3
ENCODING 739
SWIDTH 1308 0
DWIDTH 22 0
BBX 9 10 2 8
BITMAP
E380
6300
3600
3E00
1C00
1C00
3600
3600
6300
E380
ENDCHAR
STARTCHAR sigma.uni03C3
ENCODING 963
SWIDTH 1308 0
DWIDTH 22 0
BBX 11 13 2 0
BITMAP
0FE0
3FE0
7300
6180
C0C0
C0C0
C060
C060
C060
60C0
71C0
3F80
1F00
ENDCHAR
STARTCHAR theta.uni03B8
ENCODING 952
SWIDTH 832 0
DWIDTH 14 0
BBX 11 18 1 0
BITMAP
1F00
3F80
71C0
60C0
E0E0
C060
C060
C060
FFE0
FFE0
C060
C060
C060
E0E0
60C0
71C0
3F80
1F00
ENDCHAR
STARTCHAR hyphensoft.uni00AD
ENCODING 173
SWIDTH 832 0
DWIDTH 14 0
BBX 6 2 4 6
BITMAP
FC00
FC00
ENDCHAR
STARTCHAR eqminus.uni23BB
ENCODING 9147
SWIDTH 832 0
DWIDTH 14 0
BBX 10 2 2 12
BITMAP
FFC0
FFC0
ENDCHAR
STARTCHAR block.uni2588
ENCODING 9608
SWIDTH 832 0
DWIDTH 14 0
BBX 14 23 0 -4
BITMAP
FFFC
FFFC
FFFC
FFFC
FFFC
FFFC
FFFC
FFFC
FFFC
FFFC
FFFC
FFFC
FFFC
FFFC
FFFC
FFFC
FFFC
FFFC
FFFC
FFFC
FFFC
FFFC
FFFC
ENDCHAR
STARTCHAR boldparleft.uni27EA
ENCODING 10218
SWIDTH 832 0
DWIDTH 14 0
BBX 7 21 4 -3
BITMAP
1E00
3C00
3C00
7800
7800
7800
F000
F000
F000
F000
F000
F000
F000
F000
F000
7800
7800
7800
3C00
3C00
1E00
ENDCHAR
STARTCHAR boldparright.uni27EB
ENCODING 10219
SWIDTH 1308 0
DWIDTH 22 0
BBX 7 21 3 -3
BITMAP
F000
7800
7800
3C00
3C00
3C00
1E00
1E00
1E00
1E00
1E00
1E00
1E00
1E00
1E00
3C00
3C00
3C00
7800
7800
F000
ENDCHAR
STARTCHAR ucircumflex.uni00FB
ENCODING 251
SWIDTH 576 0
DWIDTH 14 0
BBX 11 19 2 0
BITMAP
1E00
1E00
3300
6180
0000
0000
C060
C060
C060
C060
C060
C060
C060
C060
C060
C0E0
E1E0
7F60
3E60
ENDCHAR
STARTCHAR udieresis.uni00FC
ENCODING 252
SWIDTH 576 0
DWIDTH 14 0
BBX 11 18 2 0
BITMAP
3180
3180
0000
0000
0000
C060
C060
C060
C060
C060
C060
C060
C060
C060
C0E0
E1E0
7F60
3E60
ENDCHAR
STARTCHAR yacute.uni00FD
ENCODING 253
SWIDTH 576 0
DWIDTH 14 0
BBX 11 24 2 -5
BITMAP
0380
0700
0600
0C00
0000
0000
C060
60C0
60C0
60C0
3180
3180
3980
1B00
1B00
1F00
0E00
0E00
0600
0C00
0C00
1C00
7800
7000
ENDCHAR
STARTCHAR ydieresis.uni00FF
ENCODING 255
SWIDTH 576 0
DWIDTH 14 0
BBX 11 23 2 -5
BITMAP
3180
3180
0000
0000
0000
C060
60C0
60C0
60C0
3180
3180
3980
1B00
1B00
1F00
0E00
0E00
0600
0C00
0C00
1C00
7800
7000
ENDCHAR
STARTCHAR triagleft.uni25C0
ENCODING 9664
SWIDTH 576 0
DWIDTH 14 0
BBX 12 11 1 3
BITMAP
0030
00F0
03F0
0FF0
3FF0
FFF0
3FF0
0FF0
03F0
00F0
0030
ENDCHAR
STARTCHAR germandblS.uni1E9E
ENCODING 7838
SWIDTH 576 0
DWIDTH 14 0
BBX 11 18 2 0
BITMAP
0FE0
3FC0
70C0
6180
C180
C300
C300
C600
C600
CF00
C3C0
C0C0
C060
C060
C060
D0E0
DFC0
CF80
ENDCHAR
STARTCHAR Gamma.uni0393
ENCODING 915
SWIDTH 576 0
DWIDTH 14 0
BBX 10 18 2 0
BITMAP
FFC0
FFC0
C000
C000
C000
C000
C000
C000
C000
C000
C000
C000
C000
C000
C000
C000
C000
C000
ENDCHAR
ENDFONT
